<svg xmlns="http://www.w3.org/2000/svg" xmlns:xlink="http://www.w3.org/1999/xlink" width="40" zoomAndPan="magnify" viewBox="0 0 30 30.000001" height="40" preserveAspectRatio="xMidYMid meet" version="1.0"><defs><clipPath id="c6ae053dbd"><path d="M 1.136719 0.652344 L 28.71875 0.652344 L 28.71875 28.234375 L 1.136719 28.234375 Z M 1.136719 0.652344 " clip-rule="nonzero"/></clipPath></defs><g clip-path="url(#c6ae053dbd)"><path fill="#000000" d="M 1.183594 13.296875 C 1.183594 13.25 1.1875 13.207031 1.195312 13.160156 C 1.5 9.867188 2.964844 6.902344 5.175781 4.695312 C 7.671875 2.199219 11.117188 0.652344 14.925781 0.652344 C 15.074219 0.652344 15.21875 0.65625 15.363281 0.660156 C 15.429688 0.652344 15.492188 0.65625 15.558594 0.667969 C 19.117188 0.828125 22.320312 2.335938 24.675781 4.695312 C 27.171875 7.1875 28.71875 10.636719 28.71875 14.445312 C 28.71875 18.253906 27.171875 21.699219 24.675781 24.195312 C 24.558594 24.3125 24.441406 24.429688 24.316406 24.542969 C 24.25 24.652344 24.15625 24.738281 24.042969 24.785156 C 21.613281 26.929688 18.421875 28.230469 14.925781 28.230469 C 14.832031 28.230469 14.742188 28.230469 14.648438 28.230469 C 14.605469 28.234375 14.566406 28.230469 14.527344 28.226562 C 10.875 28.125 7.582031 26.601562 5.175781 24.195312 C 4.960938 23.976562 4.75 23.753906 4.546875 23.523438 C 4.464844 23.464844 4.402344 23.386719 4.359375 23.300781 C 2.347656 20.90625 1.136719 17.816406 1.136719 14.445312 C 1.136719 14.058594 1.152344 13.675781 1.183594 13.296875 Z M 2.429688 12.976562 C 3.628906 13.726562 4.914062 14.324219 6.246094 14.796875 C 6.191406 12.476562 5.734375 9.863281 4.839844 6.925781 C 3.546875 8.652344 2.691406 10.722656 2.429688 12.976562 Z M 5.757812 5.832031 C 6.902344 9.363281 7.441406 12.460938 7.457031 15.183594 C 8.546875 15.5 9.664062 15.738281 10.785156 15.902344 C 10.730469 15.070312 10.722656 14.253906 10.75 13.445312 C 10.898438 9.308594 12.101562 5.457031 14.320312 1.875 C 11.085938 2.03125 8.171875 3.402344 6.03125 5.546875 C 5.9375 5.640625 5.847656 5.734375 5.757812 5.832031 Z M 15.738281 1.886719 C 13.382812 5.464844 12.101562 9.328125 11.953125 13.488281 C 11.925781 14.332031 11.941406 15.183594 12.003906 16.050781 C 13.011719 16.152344 14.023438 16.199219 15.015625 16.195312 C 15.496094 16.191406 15.972656 16.179688 16.445312 16.152344 C 16.34375 14.550781 16.640625 12.894531 17.269531 11.289062 C 18.273438 8.734375 20.132812 6.300781 22.554688 4.4375 C 20.640625 2.976562 18.292969 2.050781 15.738281 1.886719 Z M 23.496094 5.230469 C 21.148438 6.980469 19.347656 9.292969 18.394531 11.730469 C 17.828125 13.171875 17.558594 14.648438 17.652344 16.070312 C 21.867188 15.683594 25.523438 14.445312 27.414062 12.878906 C 27.0625 10.03125 25.753906 7.476562 23.824219 5.546875 C 23.71875 5.441406 23.605469 5.335938 23.496094 5.230469 Z M 27.507812 14.304688 C 25.34375 15.761719 21.804688 16.886719 17.816406 17.261719 C 18.03125 18.246094 18.429688 19.195312 19.046875 20.066406 C 20.015625 21.433594 21.515625 22.628906 23.636719 23.523438 C 23.699219 23.464844 23.761719 23.402344 23.824219 23.339844 C 26.101562 21.066406 27.511719 17.917969 27.511719 14.445312 C 27.507812 14.394531 27.507812 14.351562 27.507812 14.304688 Z M 22.625 24.394531 C 20.570312 23.433594 19.074219 22.183594 18.066406 20.757812 C 17.316406 19.699219 16.835938 18.546875 16.601562 17.351562 C 16.078125 17.382812 15.550781 17.398438 15.015625 17.398438 C 14.0625 17.402344 13.089844 17.363281 12.121094 17.273438 C 12.492188 20.363281 13.445312 23.613281 14.988281 27.023438 C 17.867188 27.011719 20.515625 26.03125 22.625 24.394531 Z M 13.640625 26.960938 C 12.148438 23.535156 11.238281 20.257812 10.894531 17.128906 C 9.730469 16.972656 8.566406 16.738281 7.425781 16.425781 C 7.28125 18.917969 6.667969 21.074219 5.648438 22.9375 C 5.773438 23.074219 5.902344 23.207031 6.03125 23.339844 C 8.023438 25.332031 10.679688 26.660156 13.640625 26.960938 Z M 4.8125 21.929688 C 5.652344 20.242188 6.144531 18.300781 6.238281 16.066406 C 4.886719 15.617188 3.578125 15.046875 2.347656 14.332031 C 2.347656 14.371094 2.347656 14.40625 2.347656 14.445312 C 2.347656 17.246094 3.261719 19.835938 4.8125 21.929688 Z M 4.8125 21.929688 " fill-opacity="1" fill-rule="nonzero"/></g></svg>