<svg xmlns="http://www.w3.org/2000/svg" xmlns:xlink="http://www.w3.org/1999/xlink" width="40" zoomAndPan="magnify" viewBox="0 0 30 30.000001" height="40" preserveAspectRatio="xMidYMid meet" version="1.0"><defs><clipPath id="6849ba6bc7"><path d="M 2.015625 1.429688 L 28.144531 1.429688 L 28.144531 27.558594 L 2.015625 27.558594 Z M 2.015625 1.429688 " clip-rule="nonzero"/></clipPath></defs><g clip-path="url(#6849ba6bc7)"><path fill="#000000" d="M 17.652344 2.34375 C 17.652344 1.84375 18.148438 1.441406 18.761719 1.441406 C 19.375 1.441406 19.871094 1.84375 19.871094 2.34375 L 19.871094 6.289062 C 19.871094 6.785156 19.375 7.191406 18.761719 7.191406 C 18.148438 7.191406 17.652344 6.789062 17.652344 6.289062 Z M 20.800781 18.925781 C 20.800781 18.597656 21.070312 18.332031 21.402344 18.332031 C 21.730469 18.332031 22 18.597656 22 18.925781 L 22 21.539062 L 23.949219 22.386719 C 24.25 22.519531 24.386719 22.871094 24.253906 23.171875 C 24.121094 23.46875 23.769531 23.605469 23.464844 23.472656 L 21.191406 22.484375 C 20.960938 22.398438 20.800781 22.179688 20.800781 21.925781 Z M 26.320312 16.492188 C 26.332031 16.527344 26.335938 16.566406 26.339844 16.605469 C 26.378906 16.820312 26.277344 17.050781 26.070312 17.15625 L 24.703125 17.871094 C 24.449219 18.003906 24.132812 17.90625 23.996094 17.652344 C 23.863281 17.398438 23.960938 17.085938 24.214844 16.953125 L 24.515625 16.792969 C 24.140625 16.570312 23.738281 16.398438 23.316406 16.277344 C 22.863281 16.148438 22.382812 16.078125 21.875 16.078125 C 20.445312 16.078125 19.148438 16.652344 18.214844 17.582031 L 18.210938 17.582031 C 17.277344 18.511719 16.695312 19.796875 16.695312 21.214844 C 16.695312 22.636719 17.277344 23.921875 18.214844 24.851562 C 19.148438 25.78125 20.445312 26.355469 21.875 26.355469 L 21.894531 26.355469 C 22.105469 26.351562 22.308594 26.332031 22.519531 26.328125 C 23.292969 26.386719 23.242188 27.464844 22.546875 27.511719 C 22.332031 27.535156 22.113281 27.542969 21.898438 27.546875 L 21.875 27.546875 C 20.117188 27.546875 18.523438 26.835938 17.367188 25.691406 C 16.210938 24.546875 15.496094 22.964844 15.496094 21.214844 C 15.496094 19.472656 16.210938 17.890625 17.367188 16.742188 C 18.523438 15.59375 20.117188 14.886719 21.875 14.886719 C 22.484375 14.886719 23.078125 14.976562 23.648438 15.136719 C 24.117188 15.273438 24.566406 15.457031 24.980469 15.6875 L 24.894531 15.398438 C 24.808594 15.125 24.96875 14.832031 25.246094 14.75 C 25.523438 14.671875 25.816406 14.828125 25.898438 15.101562 Z M 26.734375 22.992188 C 26.6875 23.121094 26.636719 23.25 26.578125 23.375 C 26.285156 24.132812 27.351562 24.550781 27.675781 23.855469 C 27.859375 23.449219 27.992188 23.046875 28.089844 22.621094 C 28.265625 21.859375 27.101562 21.585938 26.921875 22.355469 C 26.867188 22.574219 26.8125 22.777344 26.734375 22.992188 Z M 24.472656 25.710938 C 23.796875 26.101562 24.34375 27.101562 25.042969 26.757812 C 25.441406 26.539062 25.804688 26.273438 26.140625 25.976562 C 26.726562 25.453125 25.921875 24.566406 25.335938 25.09375 C 25.0625 25.335938 24.789062 25.527344 24.472656 25.710938 Z M 26.957031 20.242188 C 27.132812 20.996094 28.246094 20.800781 28.132812 20.015625 L 28.132812 20.003906 C 28.035156 19.558594 27.925781 19.179688 27.75 18.753906 C 27.511719 18.144531 26.492188 18.34375 26.609375 19.101562 C 26.617188 19.148438 26.628906 19.175781 26.644531 19.21875 C 26.789062 19.566406 26.878906 19.875 26.957031 20.242188 Z M 5.035156 14.214844 C 4.96875 14.214844 4.914062 13.941406 4.914062 13.605469 C 4.914062 13.269531 4.964844 13 5.035156 13 L 8.058594 13 C 8.121094 13 8.179688 13.273438 8.179688 13.605469 C 8.179688 13.941406 8.128906 14.214844 8.058594 14.214844 Z M 9.859375 14.214844 C 9.796875 14.214844 9.738281 13.941406 9.738281 13.605469 C 9.738281 13.269531 9.789062 13 9.859375 13 L 12.886719 13 C 12.945312 13 13.003906 13.273438 13.003906 13.605469 C 13.003906 13.941406 12.953125 14.214844 12.886719 14.214844 Z M 14.683594 14.214844 C 14.621094 14.214844 14.5625 13.941406 14.5625 13.605469 C 14.5625 13.269531 14.613281 13 14.683594 13 L 17.707031 13 C 17.773438 13 17.828125 13.269531 17.828125 13.605469 C 17.523438 13.792969 17.234375 13.996094 16.953125 14.214844 Z M 5.039062 17.710938 C 4.976562 17.710938 4.921875 17.4375 4.921875 17.097656 C 4.921875 16.761719 4.96875 16.488281 5.039062 16.488281 L 8.066406 16.488281 C 8.128906 16.488281 8.1875 16.761719 8.1875 17.097656 C 8.1875 17.4375 8.136719 17.710938 8.066406 17.710938 Z M 9.863281 17.710938 C 9.800781 17.710938 9.746094 17.4375 9.746094 17.097656 C 9.746094 16.761719 9.796875 16.488281 9.863281 16.488281 L 12.890625 16.488281 C 12.953125 16.488281 13.011719 16.761719 13.011719 17.097656 C 13.011719 17.4375 12.960938 17.710938 12.890625 17.710938 Z M 5.046875 21.203125 C 4.984375 21.203125 4.929688 20.929688 4.929688 20.59375 C 4.929688 20.257812 4.976562 19.984375 5.046875 19.984375 L 8.074219 19.984375 C 8.136719 19.984375 8.191406 20.257812 8.191406 20.59375 C 8.191406 20.929688 8.144531 21.203125 8.074219 21.203125 Z M 9.871094 21.203125 C 9.808594 21.203125 9.753906 20.929688 9.753906 20.59375 C 9.753906 20.257812 9.800781 19.984375 9.871094 19.984375 L 12.898438 19.984375 C 12.960938 19.984375 13.015625 20.257812 13.015625 20.59375 C 13.015625 20.929688 12.96875 21.203125 12.898438 21.203125 Z M 7.691406 2.34375 C 7.691406 1.84375 8.1875 1.441406 8.800781 1.441406 C 9.414062 1.441406 9.910156 1.84375 9.910156 2.34375 L 9.910156 6.289062 C 9.910156 6.785156 9.414062 7.191406 8.800781 7.191406 C 8.1875 7.191406 7.691406 6.789062 7.691406 6.289062 Z M 3.234375 10.070312 L 24.355469 10.070312 L 24.355469 5.523438 C 24.355469 5.367188 24.292969 5.234375 24.191406 5.132812 C 24.089844 5.03125 23.949219 4.96875 23.796875 4.96875 L 21.773438 4.96875 C 21.433594 4.96875 21.15625 4.695312 21.15625 4.359375 C 21.15625 4.023438 21.433594 3.75 21.773438 3.75 L 23.796875 3.75 C 24.292969 3.75 24.738281 3.949219 25.0625 4.269531 C 25.390625 4.59375 25.589844 5.035156 25.589844 5.527344 L 25.589844 12.742188 C 25.183594 12.605469 24.769531 12.492188 24.34375 12.410156 L 24.34375 11.285156 L 24.355469 11.285156 L 3.234375 11.285156 L 3.234375 23.050781 C 3.234375 23.207031 3.296875 23.34375 3.398438 23.445312 C 3.5 23.542969 3.644531 23.605469 3.792969 23.605469 L 13.832031 23.605469 C 13.945312 24.03125 14.089844 24.441406 14.261719 24.839844 L 3.804688 24.839844 C 3.3125 24.839844 2.863281 24.640625 2.539062 24.316406 C 2.214844 23.996094 2.015625 23.554688 2.015625 23.0625 L 2.015625 5.527344 C 2.015625 5.039062 2.214844 4.597656 2.539062 4.273438 C 2.863281 3.949219 3.308594 3.75 3.804688 3.75 L 5.96875 3.75 C 6.304688 3.75 6.582031 4.027344 6.582031 4.363281 C 6.582031 4.699219 6.304688 4.972656 5.96875 4.972656 L 3.804688 4.972656 C 3.648438 4.972656 3.511719 5.035156 3.410156 5.136719 C 3.308594 5.234375 3.246094 5.378906 3.246094 5.527344 L 3.246094 10.070312 Z M 11.683594 4.96875 C 11.34375 4.96875 11.066406 4.695312 11.066406 4.359375 C 11.066406 4.023438 11.34375 3.75 11.683594 3.75 L 15.804688 3.75 C 16.144531 3.75 16.417969 4.023438 16.417969 4.359375 C 16.417969 4.695312 16.144531 4.96875 15.804688 4.96875 Z M 11.683594 4.96875 " fill-opacity="1" fill-rule="nonzero"/></g></svg>