<svg xmlns="http://www.w3.org/2000/svg" xmlns:xlink="http://www.w3.org/1999/xlink" width="40" zoomAndPan="magnify" viewBox="0 0 30 30.000001" height="40" preserveAspectRatio="xMidYMid meet" version="1.0"><defs><clipPath id="7e92c64023"><path d="M 1.625 0.804688 L 28.480469 0.804688 L 28.480469 28.386719 L 1.625 28.386719 Z M 1.625 0.804688 " clip-rule="nonzero"/></clipPath></defs><g clip-path="url(#7e92c64023)"><path fill="#000000" d="M 17.847656 8.476562 C 17.519531 8.300781 17.183594 8.023438 16.820312 7.65625 C 16.75 7.585938 16.652344 7.546875 16.554688 7.546875 C 16.460938 7.546875 16.363281 7.582031 16.289062 7.652344 L 3.128906 20.839844 C 2.179688 21.792969 2.285156 23.117188 2.914062 24.292969 C 3.164062 24.761719 3.5 25.207031 3.882812 25.59375 C 4.265625 25.984375 4.699219 26.316406 5.152344 26.566406 C 6.226562 27.15625 7.40625 27.257812 8.234375 26.425781 L 21.628906 13.007812 C 21.699219 12.9375 21.738281 12.839844 21.738281 12.742188 C 21.738281 12.644531 21.703125 12.550781 21.628906 12.476562 C 21.246094 12.09375 20.957031 11.75 20.773438 11.40625 C 19.460938 11.128906 18.125 9.84375 17.847656 8.476562 Z M 18.867188 21.140625 C 18.863281 21.15625 18.855469 21.171875 18.851562 21.1875 L 18.757812 21.386719 C 18.710938 21.5 18.578125 21.546875 18.46875 21.5 C 18.40625 21.472656 18.363281 21.417969 18.347656 21.359375 C 18.03125 21.527344 17.742188 21.738281 17.492188 21.988281 C 16.863281 22.617188 16.472656 23.492188 16.472656 24.457031 C 16.472656 25.421875 16.863281 26.292969 17.492188 26.925781 C 17.519531 26.953125 17.546875 26.980469 17.574219 27.003906 C 17.589844 26.996094 17.609375 26.988281 17.628906 26.984375 C 17.746094 26.953125 17.863281 27.027344 17.894531 27.144531 C 17.902344 27.175781 17.910156 27.207031 17.921875 27.238281 C 17.933594 27.265625 17.941406 27.289062 17.953125 27.3125 C 18.070312 27.398438 18.191406 27.472656 18.316406 27.539062 C 17.933594 26.570312 17.820312 25.246094 18.015625 23.980469 C 18.183594 22.871094 18.589844 21.796875 19.257812 21.039062 C 19.125 21.0625 18.992188 21.097656 18.867188 21.140625 Z M 17.15625 25.878906 C 17.15625 25.757812 17.253906 25.65625 17.375 25.65625 C 17.496094 25.65625 17.59375 25.757812 17.59375 25.878906 C 17.59375 25.9375 17.597656 26.003906 17.605469 26.066406 C 17.617188 26.132812 17.628906 26.199219 17.644531 26.253906 C 17.675781 26.371094 17.601562 26.492188 17.484375 26.523438 C 17.371094 26.554688 17.25 26.484375 17.21875 26.367188 C 17.199219 26.296875 17.183594 26.210938 17.171875 26.125 C 17.160156 26.035156 17.15625 25.945312 17.15625 25.878906 Z M 17.074219 24.558594 C 17.085938 24.4375 17.191406 24.347656 17.3125 24.359375 C 17.433594 24.371094 17.523438 24.476562 17.511719 24.597656 C 17.511719 24.621094 17.511719 24.691406 17.515625 24.769531 C 17.523438 24.859375 17.53125 24.960938 17.542969 25.027344 C 17.558594 25.148438 17.476562 25.261719 17.355469 25.277344 C 17.234375 25.292969 17.125 25.210938 17.105469 25.089844 C 17.09375 25.011719 17.082031 24.898438 17.074219 24.796875 C 17.074219 24.703125 17.070312 24.613281 17.074219 24.558594 Z M 17.300781 23.167969 C 17.332031 23.050781 17.453125 22.984375 17.570312 23.015625 C 17.6875 23.050781 17.753906 23.171875 17.722656 23.289062 C 17.714844 23.320312 17.699219 23.382812 17.6875 23.453125 L 17.683594 23.460938 C 17.667969 23.546875 17.652344 23.640625 17.644531 23.710938 C 17.625 23.832031 17.511719 23.914062 17.394531 23.894531 C 17.273438 23.878906 17.191406 23.765625 17.207031 23.644531 C 17.21875 23.582031 17.234375 23.476562 17.253906 23.378906 L 17.257812 23.371094 C 17.273438 23.289062 17.289062 23.210938 17.300781 23.167969 Z M 17.796875 21.933594 C 17.84375 21.824219 17.972656 21.773438 18.085938 21.824219 C 18.195312 21.875 18.246094 22.003906 18.195312 22.117188 L 18.027344 22.484375 C 17.980469 22.597656 17.847656 22.644531 17.738281 22.597656 C 17.628906 22.546875 17.578125 22.417969 17.628906 22.304688 Z M 19.441406 27.90625 C 19.457031 27.816406 19.527344 27.742188 19.625 27.730469 C 19.746094 27.710938 19.855469 27.792969 19.871094 27.914062 C 19.875 27.925781 19.875 27.933594 19.875 27.945312 C 19.902344 27.945312 19.929688 27.945312 19.953125 27.945312 C 20.917969 27.945312 21.789062 27.554688 22.417969 26.921875 C 23.046875 26.292969 23.4375 25.417969 23.4375 24.453125 C 23.4375 23.492188 23.050781 22.617188 22.417969 21.984375 C 21.972656 21.535156 21.40625 21.210938 20.769531 21.058594 L 20.738281 21.113281 C 20.675781 21.21875 20.542969 21.253906 20.4375 21.191406 C 20.359375 21.148438 20.320312 21.066406 20.328125 20.980469 C 20.207031 20.96875 20.082031 20.960938 19.957031 20.960938 C 19.128906 21.632812 18.636719 22.808594 18.445312 24.042969 C 18.234375 25.4375 18.40625 26.894531 18.917969 27.789062 C 19.09375 27.839844 19.265625 27.882812 19.441406 27.90625 Z M 18.886719 26.824219 C 18.871094 26.703125 18.953125 26.589844 19.074219 26.574219 C 19.195312 26.558594 19.308594 26.636719 19.324219 26.757812 C 19.328125 26.808594 19.34375 26.859375 19.359375 26.914062 C 19.375 26.96875 19.402344 27.035156 19.429688 27.09375 C 19.480469 27.203125 19.429688 27.332031 19.320312 27.382812 C 19.210938 27.433594 19.082031 27.386719 19.03125 27.277344 C 19 27.207031 18.96875 27.128906 18.941406 27.042969 C 18.917969 26.96875 18.898438 26.890625 18.886719 26.824219 Z M 18.710938 25.429688 C 18.71875 25.308594 18.828125 25.21875 18.949219 25.230469 C 19.070312 25.242188 19.15625 25.351562 19.144531 25.472656 C 19.140625 25.523438 19.140625 25.59375 19.140625 25.664062 C 19.144531 25.730469 19.152344 25.800781 19.160156 25.851562 C 19.179688 25.972656 19.097656 26.085938 18.976562 26.105469 C 18.859375 26.125 18.746094 26.042969 18.726562 25.921875 C 18.714844 25.851562 18.707031 25.761719 18.703125 25.675781 C 18.699219 25.589844 18.699219 25.5 18.710938 25.429688 Z M 18.757812 24.105469 C 18.777344 23.988281 18.894531 23.910156 19.015625 23.929688 C 19.132812 23.953125 19.210938 24.070312 19.1875 24.191406 C 19.183594 24.21875 19.179688 24.285156 19.175781 24.359375 C 19.171875 24.453125 19.171875 24.554688 19.175781 24.621094 C 19.179688 24.742188 19.085938 24.847656 18.964844 24.851562 C 18.84375 24.855469 18.742188 24.761719 18.734375 24.640625 C 18.734375 24.5625 18.734375 24.449219 18.734375 24.347656 C 18.742188 24.246094 18.746094 24.15625 18.757812 24.105469 Z M 19.113281 22.746094 C 19.160156 22.632812 19.289062 22.578125 19.398438 22.621094 C 19.511719 22.664062 19.566406 22.792969 19.523438 22.90625 C 19.511719 22.9375 19.492188 22.996094 19.472656 23.066406 C 19.449219 23.15625 19.421875 23.253906 19.402344 23.320312 C 19.375 23.4375 19.257812 23.507812 19.136719 23.480469 C 19.019531 23.453125 18.945312 23.332031 18.976562 23.214844 C 18.992188 23.144531 19.019531 23.039062 19.050781 22.945312 C 19.074219 22.859375 19.097656 22.785156 19.113281 22.746094 Z M 19.726562 21.5625 C 19.785156 21.457031 19.921875 21.421875 20.027344 21.484375 C 20.132812 21.542969 20.167969 21.679688 20.105469 21.785156 L 19.90625 22.136719 C 19.84375 22.242188 19.710938 22.277344 19.605469 22.214844 C 19.5 22.15625 19.464844 22.019531 19.523438 21.914062 Z M 18.730469 28.1875 C 18.714844 28.1875 18.703125 28.183594 18.691406 28.175781 C 18.117188 27.980469 17.601562 27.65625 17.183594 27.234375 C 16.472656 26.523438 16.035156 25.539062 16.035156 24.453125 C 16.035156 23.367188 16.472656 22.382812 17.183594 21.671875 C 17.894531 20.960938 18.875 20.519531 19.960938 20.519531 C 21.042969 20.519531 22.023438 20.960938 22.734375 21.671875 C 23.445312 22.382812 23.882812 23.367188 23.882812 24.453125 C 23.882812 25.539062 23.445312 26.523438 22.734375 27.234375 C 22.023438 27.945312 21.042969 28.382812 19.960938 28.382812 C 19.527344 28.386719 19.117188 28.316406 18.730469 28.1875 Z M 15.992188 15.679688 C 16.148438 15.523438 16.398438 15.523438 16.550781 15.679688 C 16.703125 15.832031 16.707031 16.085938 16.550781 16.238281 L 8.660156 24.144531 C 8.503906 24.300781 8.253906 24.300781 8.101562 24.144531 C 7.945312 23.988281 7.945312 23.738281 8.101562 23.585938 Z M 26.3125 0.957031 L 28.316406 2.964844 C 28.417969 3.070312 28.46875 3.203125 28.46875 3.335938 C 28.46875 3.46875 28.417969 3.605469 28.316406 3.707031 L 26.382812 5.644531 L 26.378906 5.644531 C 26.277344 5.746094 26.144531 5.796875 26.011719 5.796875 C 25.929688 5.796875 25.847656 5.777344 25.769531 5.734375 C 25.425781 6.074219 25.035156 6.449219 24.632812 6.832031 C 23.601562 7.816406 22.507812 8.855469 21.71875 9.800781 C 21.402344 10.179688 21.292969 10.480469 21.363281 10.765625 C 21.441406 11.09375 21.734375 11.457031 22.1875 11.914062 C 22.414062 12.140625 22.527344 12.441406 22.527344 12.734375 C 22.527344 13.035156 22.414062 13.335938 22.1875 13.5625 L 8.792969 26.980469 C 7.671875 28.105469 6.140625 28.003906 4.773438 27.253906 C 4.253906 26.96875 3.757812 26.585938 3.324219 26.140625 C 2.886719 25.699219 2.507812 25.191406 2.21875 24.660156 C 1.433594 23.195312 1.328125 21.519531 2.570312 20.273438 L 15.730469 7.089844 C 15.957031 6.863281 16.257812 6.75 16.554688 6.75 C 16.851562 6.75 17.148438 6.863281 17.378906 7.089844 C 17.820312 7.535156 18.183594 7.8125 18.515625 7.890625 C 18.804688 7.957031 19.105469 7.855469 19.472656 7.558594 C 20.398438 6.816406 21.492188 5.660156 22.503906 4.59375 C 22.871094 4.203125 23.230469 3.828125 23.546875 3.5 C 23.507812 3.425781 23.488281 3.34375 23.488281 3.257812 C 23.488281 3.125 23.539062 2.988281 23.640625 2.890625 L 25.574219 0.953125 C 25.679688 0.847656 25.8125 0.800781 25.945312 0.800781 C 26.078125 0.804688 26.210938 0.859375 26.3125 0.957031 Z M 26.3125 0.957031 " fill-opacity="1" fill-rule="nonzero"/></g></svg>