<svg xmlns="http://www.w3.org/2000/svg" xmlns:xlink="http://www.w3.org/1999/xlink" width="40" zoomAndPan="magnify" viewBox="0 0 30 30.000001" height="40" preserveAspectRatio="xMidYMid meet" version="1.0"><defs><clipPath id="7f6b2589eb"><path d="M 1.339844 5.578125 L 28.921875 5.578125 L 28.921875 23.726562 L 1.339844 23.726562 Z M 1.339844 5.578125 " clip-rule="nonzero"/></clipPath></defs><g clip-path="url(#7f6b2589eb)"><path fill="#000000" d="M 14.917969 17.707031 C 15.5625 17.65625 16.007812 17.289062 16.308594 16.761719 L 16.3125 16.757812 C 16.617188 16.222656 16.777344 15.515625 16.859375 14.800781 C 16.902344 14.421875 16.925781 14.027344 16.953125 13.625 C 17.078125 11.648438 17.214844 9.511719 19.453125 8.601562 C 19.792969 8.460938 20.144531 8.375 20.511719 8.339844 C 21.28125 8.265625 22.070312 8.425781 22.75 8.816406 C 23.433594 9.207031 24.007812 9.832031 24.347656 10.683594 C 24.507812 11.074219 24.613281 11.515625 24.660156 12 L 24.660156 12.007812 C 24.65625 13.203125 24.84375 14.878906 25.359375 16.109375 C 25.730469 16.996094 26.273438 17.644531 27.027344 17.707031 C 27.054688 17.710938 27.078125 17.738281 27.078125 17.769531 L 27.074219 17.785156 C 26.933594 18.179688 26.289062 18.488281 25.515625 18.636719 C 26.664062 18.917969 27.460938 19.253906 28.003906 19.855469 C 28.667969 20.589844 28.914062 21.6875 28.914062 23.507812 C 28.914062 23.625 28.816406 23.722656 28.699219 23.722656 L 19.695312 23.722656 C 19.710938 23.648438 19.71875 23.570312 19.71875 23.492188 L 19.71875 22.734375 C 19.71875 22.070312 19.550781 21.429688 19.257812 20.84375 C 19.804688 21.066406 20.355469 21.191406 20.90625 21.207031 C 22.335938 21.253906 23.796875 20.566406 25.292969 19.027344 C 25.078125 18.976562 24.84375 18.925781 24.601562 18.878906 L 24.566406 18.871094 C 24.355469 18.828125 24.0625 18.769531 23.757812 18.683594 C 23.652344 18.667969 23.550781 18.648438 23.453125 18.625 C 23.148438 18.550781 22.878906 18.4375 22.679688 18.277344 C 22.371094 18.035156 22.21875 17.695312 22.320312 17.238281 C 21.402344 17.816406 20.4375 17.8125 19.523438 17.21875 L 19.464844 17.1875 C 19.460938 17.457031 19.289062 18.257812 19.03125 18.417969 C 18.632812 18.660156 18.011719 18.773438 17.527344 18.851562 C 16.925781 18.429688 16.25 18.132812 15.554688 17.996094 C 15.335938 17.953125 15.113281 17.910156 14.898438 17.859375 C 14.886719 17.835938 14.875 17.808594 14.867188 17.785156 C 14.855469 17.753906 14.871094 17.722656 14.902344 17.710938 Z M 11.894531 16.554688 C 11.90625 16.539062 11.917969 16.527344 11.933594 16.519531 L 12.011719 16.441406 C 12.601562 15.886719 13.035156 15.476562 12.953125 14.472656 C 12.949219 14.425781 12.960938 14.375 12.988281 14.328125 C 13.074219 14.199219 13.179688 14.179688 13.308594 14.261719 C 13.347656 14.289062 13.390625 14.3125 13.433594 14.328125 C 13.464844 14.339844 13.5 14.347656 13.53125 14.347656 C 13.589844 14.351562 13.621094 14.351562 13.628906 14.351562 C 13.636719 14.34375 13.652344 14.304688 13.671875 14.242188 L 13.964844 13.40625 C 14.003906 13.265625 14.007812 13.164062 13.984375 13.097656 C 13.976562 13.070312 13.960938 13.046875 13.941406 13.035156 L 13.929688 13.03125 C 13.894531 13.011719 13.84375 13.003906 13.789062 13.007812 C 13.660156 13.019531 13.507812 13.082031 13.375 13.183594 C 13.328125 13.21875 13.261719 13.238281 13.199219 13.226562 C 13.046875 13.199219 12.984375 13.109375 13.007812 12.960938 C 13.226562 11.6875 13.128906 10.859375 12.859375 10.292969 C 12.621094 9.796875 12.246094 9.496094 11.835938 9.273438 C 10.929688 9.972656 10.292969 10.050781 9.65625 10.128906 C 9.128906 10.195312 8.605469 10.261719 7.910156 10.746094 C 7.578125 10.976562 7.359375 11.253906 7.246094 11.578125 C 7.132812 11.90625 7.125 12.285156 7.214844 12.710938 C 7.230469 12.757812 7.230469 12.808594 7.210938 12.859375 C 7.167969 12.980469 7.035156 13.039062 6.917969 12.996094 C 6.847656 12.96875 6.777344 12.941406 6.707031 12.917969 C 6.433594 12.824219 6.242188 12.78125 6.167969 12.953125 C 6.160156 13.007812 6.15625 13.089844 6.15625 13.179688 C 6.152344 13.304688 6.152344 13.4375 6.15625 13.503906 L 6.15625 13.507812 C 6.164062 13.667969 6.199219 13.878906 6.273438 14.058594 C 6.324219 14.171875 6.386719 14.265625 6.464844 14.308594 C 6.503906 14.332031 6.550781 14.34375 6.59375 14.34375 C 6.652344 14.34375 6.714844 14.332031 6.78125 14.3125 C 6.855469 14.285156 6.925781 14.296875 6.988281 14.339844 C 7.050781 14.386719 7.085938 14.445312 7.085938 14.523438 C 7.113281 15.574219 7.574219 15.972656 8.136719 16.460938 L 8.371094 16.664062 C 8.742188 16.996094 9.121094 17.222656 9.503906 17.339844 C 9.800781 17.398438 10.109375 17.40625 10.40625 17.367188 C 10.613281 17.339844 10.808594 17.292969 10.996094 17.226562 C 11.261719 17.097656 11.519531 16.914062 11.773438 16.667969 Z M 12.328125 16.777344 C 12.8125 18.402344 14.109375 18.652344 15.382812 18.902344 C 17.109375 19.238281 18.800781 20.878906 18.800781 22.734375 L 18.800781 23.492188 C 18.800781 23.621094 18.695312 23.726562 18.570312 23.726562 L 1.582031 23.726562 C 1.453125 23.726562 1.351562 23.621094 1.351562 23.492188 L 1.351562 22.808594 C 1.351562 20.574219 3.144531 19.253906 4.960938 19.011719 C 6.285156 18.832031 7.621094 18.652344 8.089844 17.035156 L 8.066406 17.011719 L 7.835938 16.808594 C 7.238281 16.292969 6.738281 15.859375 6.644531 14.804688 L 6.589844 14.804688 C 6.46875 14.804688 6.347656 14.773438 6.238281 14.710938 C 6.058594 14.609375 5.933594 14.4375 5.851562 14.242188 C 5.75 14.007812 5.707031 13.734375 5.695312 13.53125 L 5.695312 13.527344 C 5.691406 13.449219 5.691406 13.304688 5.695312 13.167969 C 5.699219 13.046875 5.707031 12.929688 5.714844 12.863281 C 5.71875 12.84375 5.722656 12.824219 5.730469 12.808594 C 5.855469 12.457031 6.046875 12.34375 6.300781 12.351562 L 6.132812 12.238281 C 6.042969 11.101562 6.308594 9.132812 5.082031 8.761719 C 7.402344 5.878906 10.074219 4.308594 12.082031 6.875 C 14.5 7.003906 15.46875 10.867188 13.539062 12.496094 L 13.53125 12.589844 C 13.605469 12.566406 13.679688 12.550781 13.753906 12.546875 C 13.894531 12.535156 14.03125 12.558594 14.148438 12.621094 L 14.167969 12.632812 C 14.285156 12.703125 14.375 12.808594 14.421875 12.957031 C 14.46875 13.105469 14.472656 13.300781 14.410156 13.535156 L 14.109375 14.394531 C 14.058594 14.535156 14.015625 14.632812 13.917969 14.710938 L 13.898438 14.722656 C 13.800781 14.792969 13.683594 14.820312 13.507812 14.8125 L 13.421875 14.800781 C 13.402344 15.757812 12.9375 16.199219 12.328125 16.777344 Z M 11.984375 17.140625 C 11.28125 18.121094 9.222656 18.140625 8.453125 17.363281 C 8.261719 18.167969 7.765625 18.722656 7.03125 19.085938 C 9.140625 20.378906 11.21875 20.339844 13.265625 18.8125 C 12.480469 18.453125 12.082031 17.878906 11.984375 17.140625 Z M 22.6875 16.414062 C 23.667969 15.324219 23.925781 14.589844 23.796875 13.125 C 23.777344 12.890625 23.742188 12.652344 23.695312 12.410156 C 22.894531 12.039062 22.375 11.222656 22.105469 9.992188 C 21.789062 12.332031 18.933594 12.230469 18.214844 12.65625 C 18.214844 12.855469 18.207031 13.039062 18.203125 13.21875 C 18.171875 14.421875 18.261719 15.0625 18.863281 16.023438 C 18.964844 16.183594 19.0625 16.339844 19.179688 16.46875 C 20.140625 17.507812 21.78125 17.378906 22.6875 16.414062 Z M 22.6875 16.414062 " fill-opacity="1" fill-rule="nonzero"/></g></svg>