<svg xmlns="http://www.w3.org/2000/svg" xmlns:xlink="http://www.w3.org/1999/xlink" width="40" zoomAndPan="magnify" viewBox="0 0 30 30.000001" height="40" preserveAspectRatio="xMidYMid meet" version="1.0"><defs><clipPath id="330d86e2f1"><path d="M 1.457031 2.074219 L 28.3125 2.074219 L 28.3125 26.753906 L 1.457031 26.753906 Z M 1.457031 2.074219 " clip-rule="nonzero"/></clipPath></defs><g clip-path="url(#330d86e2f1)"><path fill="#000000" d="M 4.804688 21.207031 C 4.855469 21.558594 4.945312 21.898438 5.074219 22.226562 C 5.210938 22.578125 5.410156 22.886719 5.675781 23.15625 C 6.523438 23.996094 7.625 23.996094 8.832031 23.996094 L 9.402344 23.996094 C 9.898438 23.28125 11.0625 22.78125 12.417969 22.78125 C 14.226562 22.78125 15.695312 23.667969 15.695312 24.769531 C 15.695312 25.867188 14.230469 26.757812 12.417969 26.757812 C 11.09375 26.757812 9.949219 26.277344 9.4375 25.585938 L 8.832031 25.585938 C 7.285156 25.585938 5.871094 25.585938 4.558594 24.289062 C 4.140625 23.863281 3.820312 23.375 3.601562 22.820312 C 3.398438 22.300781 3.269531 21.765625 3.210938 21.207031 C 2.976562 21.203125 2.753906 21.152344 2.539062 21.058594 C 2.324219 20.96875 2.136719 20.835938 1.972656 20.671875 C 1.808594 20.503906 1.683594 20.3125 1.59375 20.09375 C 1.507812 19.878906 1.460938 19.65625 1.460938 19.421875 L 1.460938 12.972656 C 1.460938 12.738281 1.507812 12.507812 1.597656 12.289062 C 1.6875 12.070312 1.820312 11.878906 1.984375 11.710938 C 2.152344 11.542969 2.347656 11.414062 2.566406 11.324219 C 2.785156 11.234375 3.011719 11.1875 3.25 11.1875 L 3.375 11.1875 C 3.699219 7.875 5.777344 5.285156 8.589844 3.738281 C 10.277344 2.8125 12.078125 2.273438 13.996094 2.121094 C 15.949219 1.949219 17.839844 2.214844 19.667969 2.921875 C 22.824219 4.167969 25.46875 6.820312 26.496094 11.1875 L 26.523438 11.1875 C 26.761719 11.1875 26.988281 11.234375 27.207031 11.324219 C 27.425781 11.414062 27.617188 11.542969 27.785156 11.710938 C 27.953125 11.878906 28.082031 12.070312 28.171875 12.289062 C 28.265625 12.507812 28.308594 12.738281 28.3125 12.972656 L 28.3125 19.421875 C 28.308594 19.65625 28.265625 19.886719 28.171875 20.105469 C 28.082031 20.324219 27.953125 20.515625 27.785156 20.683594 C 27.617188 20.851562 27.425781 20.980469 27.207031 21.070312 C 26.988281 21.164062 26.761719 21.207031 26.523438 21.207031 L 24.734375 21.207031 L 24.734375 11.34375 C 23.820312 7.757812 21.625 5.570312 19.023438 4.550781 C 17.449219 3.941406 15.816406 3.714844 14.132812 3.863281 C 12.46875 3.996094 10.90625 4.460938 9.4375 5.257812 C 7.003906 6.609375 5.226562 8.851562 5.082031 11.703125 C 5.082031 11.789062 5.0625 11.871094 5.035156 11.953125 L 5.035156 21.207031 Z M 4.804688 21.207031 " fill-opacity="1" fill-rule="nonzero"/></g></svg>