<svg xmlns="http://www.w3.org/2000/svg" xmlns:xlink="http://www.w3.org/1999/xlink" width="40" zoomAndPan="magnify" viewBox="0 0 30 30.000001" height="40" preserveAspectRatio="xMidYMid meet" version="1.0"><defs><clipPath id="97fac59627"><path d="M 1.136719 0.796875 L 28.71875 0.796875 L 28.71875 28.378906 L 1.136719 28.378906 Z M 1.136719 0.796875 " clip-rule="nonzero"/></clipPath></defs><g clip-path="url(#97fac59627)"><path fill="#000000" d="M 14.925781 0.796875 C 18.738281 0.796875 22.183594 2.34375 24.675781 4.839844 C 27.171875 7.335938 28.71875 10.78125 28.71875 14.589844 C 28.71875 18.398438 27.171875 21.84375 24.675781 24.339844 C 22.183594 26.835938 18.734375 28.378906 14.925781 28.378906 C 11.121094 28.378906 7.671875 26.835938 5.175781 24.339844 C 2.679688 21.84375 1.136719 18.398438 1.136719 14.589844 C 1.136719 10.78125 2.679688 7.332031 5.175781 4.839844 C 7.671875 2.34375 11.117188 0.796875 14.925781 0.796875 Z M 18.386719 27.078125 L 18.359375 27.058594 L 19.90625 21.875 L 16.714844 18.339844 L 12.957031 18.304688 L 9.976562 22.035156 L 11.472656 27.046875 L 11.4375 27.066406 C 12.546875 27.378906 13.71875 27.542969 14.925781 27.542969 C 16.125 27.542969 17.285156 27.382812 18.386719 27.078125 Z M 3.878906 21.359375 L 9.34375 21.386719 L 12.199219 17.8125 L 11.015625 14.195312 L 6.210938 12.105469 L 1.984375 15.179688 C 2.085938 17.4375 2.765625 19.546875 3.878906 21.359375 Z M 4.902344 6.382812 L 6.5625 11.351562 L 11.046875 13.300781 L 14.511719 10.613281 L 14.511719 5.5 L 10.230469 2.511719 C 8.542969 3.167969 7.023438 4.167969 5.765625 5.429688 C 5.460938 5.730469 5.171875 6.050781 4.902344 6.382812 Z M 19.476562 2.453125 L 15.34375 5.460938 L 15.34375 10.605469 L 18.597656 13.121094 L 23.269531 11.121094 L 24.882812 6.296875 C 24.628906 5.996094 24.367188 5.703125 24.085938 5.425781 C 22.792969 4.132812 21.222656 3.109375 19.476562 2.453125 Z M 27.867188 15.242188 L 27.863281 15.246094 L 23.378906 11.980469 L 18.929688 13.886719 L 17.566406 17.933594 L 20.648438 21.351562 C 20.664062 21.363281 20.667969 21.378906 20.671875 21.398438 L 25.96875 21.375 C 27.074219 19.574219 27.753906 17.484375 27.867188 15.242188 Z M 27.867188 15.242188 " fill-opacity="1" fill-rule="evenodd"/></g></svg>