<svg xmlns="http://www.w3.org/2000/svg" xmlns:xlink="http://www.w3.org/1999/xlink" width="40" zoomAndPan="magnify" viewBox="0 0 30 30.000001" height="40" preserveAspectRatio="xMidYMid meet" version="1.0"><defs><clipPath id="0b4299bae5"><path d="M 1.667969 1.789062 L 28.523438 1.789062 L 28.523438 27.191406 L 1.667969 27.191406 Z M 1.667969 1.789062 " clip-rule="nonzero"/></clipPath></defs><g clip-path="url(#0b4299bae5)"><path fill="#000000" d="M 15.742188 2.214844 L 19.167969 10.191406 L 27.851562 10.964844 C 28.234375 11 28.519531 11.335938 28.488281 11.714844 C 28.46875 11.902344 28.382812 12.0625 28.25 12.175781 L 21.679688 17.882812 L 23.625 26.34375 C 23.710938 26.714844 23.476562 27.089844 23.097656 27.171875 C 22.90625 27.21875 22.714844 27.175781 22.5625 27.078125 L 15.097656 22.640625 L 7.609375 27.09375 C 7.277344 27.289062 6.851562 27.179688 6.652344 26.851562 C 6.558594 26.695312 6.53125 26.511719 6.570312 26.34375 L 8.515625 17.882812 L 1.941406 12.175781 C 1.652344 11.925781 1.625 11.488281 1.878906 11.199219 C 2.007812 11.050781 2.183594 10.972656 2.363281 10.964844 L 11.027344 10.191406 L 14.453125 2.210938 C 14.605469 1.859375 15.015625 1.695312 15.371094 1.84375 C 15.542969 1.917969 15.671875 2.054688 15.742188 2.214844 Z M 18.046875 11.113281 L 15.097656 4.25 L 12.148438 11.113281 C 12.050781 11.34375 11.832031 11.511719 11.566406 11.53125 L 4.089844 12.199219 L 9.71875 17.085938 C 9.925781 17.246094 10.03125 17.519531 9.96875 17.789062 L 8.296875 25.070312 L 14.726562 21.246094 C 14.941406 21.109375 15.222656 21.097656 15.457031 21.238281 L 21.898438 25.070312 L 20.226562 17.789062 C 20.171875 17.550781 20.25 17.285156 20.449219 17.113281 L 26.105469 12.199219 L 18.667969 11.535156 C 18.402344 11.527344 18.15625 11.371094 18.046875 11.113281 Z M 18.046875 11.113281 " fill-opacity="1" fill-rule="nonzero"/></g></svg>