<svg width="20" height="20" viewBox="0 0 20 20" fill="none" xmlns="http://www.w3.org/2000/svg">
<path d="M13.5391 6.46753C14.4749 7.40496 15.0005 8.67543 15.0005 10C15.0005 11.3246 14.4749 12.5951 13.5391 13.5325" stroke="#6B7280" stroke-width="2" stroke-linecap="round" stroke-linejoin="round"/>
<path d="M15.8955 4.11084C17.4562 5.67337 18.3329 7.79153 18.3329 10C18.3329 12.2085 17.4562 14.3266 15.8955 15.8892" stroke="#6B7280" stroke-width="2" stroke-linecap="round" stroke-linejoin="round"/>
<path d="M4.10438 15.8892C2.54365 14.3266 1.66699 12.2085 1.66699 10C1.66699 7.79153 2.54365 5.67337 4.10438 4.11084" stroke="#6B7280" stroke-width="2" stroke-linecap="round" stroke-linejoin="round"/>
<path d="M6.46046 13.5325C5.52463 12.5951 4.99902 11.3246 4.99902 10C4.99902 8.67543 5.52463 7.40496 6.46046 6.46753" stroke="#6B7280" stroke-width="2" stroke-linecap="round" stroke-linejoin="round"/>
<path d="M9.99967 11.6666C10.9201 11.6666 11.6663 10.9204 11.6663 9.99992C11.6663 9.07944 10.9201 8.33325 9.99967 8.33325C9.0792 8.33325 8.33301 9.07944 8.33301 9.99992C8.33301 10.9204 9.0792 11.6666 9.99967 11.6666Z" stroke="#6B7280" stroke-width="2" stroke-linecap="round" stroke-linejoin="round"/>
</svg>
