<svg xmlns="http://www.w3.org/2000/svg" xmlns:xlink="http://www.w3.org/1999/xlink" width="40" zoomAndPan="magnify" viewBox="0 0 30 30.000001" height="40" preserveAspectRatio="xMidYMid meet" version="1.0"><defs><clipPath id="8158739ee1"><path d="M 3.386719 1.53125 L 26.613281 1.53125 L 26.613281 27.660156 L 3.386719 27.660156 Z M 3.386719 1.53125 " clip-rule="nonzero"/></clipPath></defs><g clip-path="url(#8158739ee1)"><path fill="#000000" d="M 22.226562 11.226562 C 22.9375 11.011719 23.570312 10.671875 24.085938 10.238281 C 24.933594 9.53125 25.457031 8.566406 25.457031 7.511719 C 25.457031 6.921875 25.292969 6.363281 25.003906 5.863281 C 24.875 5.640625 24.71875 5.425781 24.539062 5.226562 C 24.449219 6.539062 24.128906 7.785156 23.625 8.917969 C 23.253906 9.757812 22.78125 10.53125 22.226562 11.226562 Z M 15.265625 20.90625 L 15.863281 22.585938 L 17.636719 22.636719 L 16.230469 23.726562 L 16.730469 25.4375 L 15.265625 24.429688 L 13.804688 25.4375 L 14.304688 23.726562 L 12.898438 22.636719 L 14.671875 22.585938 Z M 7.734375 18.726562 L 22.804688 18.726562 L 22.804688 27.617188 L 7.734375 27.617188 Z M 16.179688 14.304688 L 16.179688 15.691406 L 16.28125 15.691406 L 16.28125 16.664062 L 13.667969 16.664062 L 13.667969 15.691406 L 13.769531 15.691406 L 13.769531 14.296875 C 12.175781 14.046875 10.71875 13.324219 9.527344 12.265625 L 9.386719 12.65625 C 7.746094 12.628906 6.261719 12.058594 5.183594 11.15625 C 4.074219 10.226562 3.386719 8.9375 3.386719 7.511719 C 3.386719 6.703125 3.609375 5.941406 4.003906 5.257812 L 4.003906 5.253906 C 4.402344 4.5625 4.984375 3.957031 5.695312 3.480469 L 6.335938 3.050781 L 5.59375 3.050781 L 5.59375 1.574219 L 24.257812 1.574219 L 24.257812 3.050781 L 23.664062 3.050781 L 24.304688 3.480469 C 25.015625 3.957031 25.59375 4.5625 25.996094 5.253906 C 26.390625 5.9375 26.613281 6.699219 26.613281 7.511719 C 26.613281 8.9375 25.925781 10.226562 24.8125 11.15625 C 23.738281 12.0625 22.253906 12.628906 20.613281 12.660156 L 20.46875 12.265625 C 19.269531 13.335938 17.792969 14.066406 16.179688 14.304688 Z M 12.269531 17.636719 L 17.683594 17.636719 L 17.683594 18.605469 L 12.269531 18.605469 Z M 13.09375 16.664062 L 16.859375 16.664062 L 16.859375 17.632812 L 13.09375 17.632812 Z M 5.914062 10.238281 C 6.429688 10.675781 7.066406 11.011719 7.777344 11.226562 C 7.222656 10.535156 6.746094 9.757812 6.375 8.917969 C 5.871094 7.785156 5.550781 6.539062 5.460938 5.222656 C 5.285156 5.417969 5.128906 5.632812 4.996094 5.863281 C 4.707031 6.359375 4.542969 6.921875 4.542969 7.511719 C 4.542969 8.566406 5.066406 9.527344 5.914062 10.238281 Z M 5.914062 10.238281 " fill-opacity="1" fill-rule="evenodd"/></g></svg>