<svg xmlns="http://www.w3.org/2000/svg" xmlns:xlink="http://www.w3.org/1999/xlink" width="40" zoomAndPan="magnify" viewBox="0 0 30 30.000001" height="40" preserveAspectRatio="xMidYMid meet" version="1.0"><defs><clipPath id="0ad88188d9"><path d="M 1.695312 5.582031 L 27.824219 5.582031 L 27.824219 23.726562 L 1.695312 23.726562 Z M 1.695312 5.582031 " clip-rule="nonzero"/></clipPath></defs><g clip-path="url(#0ad88188d9)"><path fill="#000000" d="M 2.972656 5.597656 L 18.4375 5.597656 C 19.140625 5.597656 19.714844 6.175781 19.714844 6.882812 L 19.714844 11.636719 L 27.824219 7.488281 L 27.824219 20.996094 L 19.714844 16.417969 L 19.714844 22.429688 C 19.714844 23.132812 19.140625 23.710938 18.4375 23.710938 L 2.972656 23.710938 C 2.273438 23.710938 1.695312 23.132812 1.695312 22.429688 L 1.695312 6.882812 C 1.695312 6.175781 2.269531 5.597656 2.972656 5.597656 Z M 8.875 8.84375 L 8.875 20.46875 L 14.65625 14.65625 Z M 8.875 8.84375 " fill-opacity="1" fill-rule="evenodd"/></g></svg>