<svg xmlns="http://www.w3.org/2000/svg" xmlns:xlink="http://www.w3.org/1999/xlink" width="40" zoomAndPan="magnify" viewBox="0 0 30 30.000001" height="40" preserveAspectRatio="xMidYMid meet" version="1.0"><defs><clipPath id="cab0a7c228"><path d="M 2.46875 2.902344 L 27.875 2.902344 L 27.875 26.128906 L 2.46875 26.128906 Z M 2.46875 2.902344 " clip-rule="nonzero"/></clipPath></defs><g clip-path="url(#cab0a7c228)"><path fill="#000000" d="M 25.328125 24.796875 L 25.328125 25.703125 C 25.328125 25.941406 25.136719 26.128906 24.898438 26.128906 L 5.328125 26.128906 C 5.089844 26.128906 4.898438 25.9375 4.898438 25.703125 L 4.898438 14.855469 C 4.417969 15.039062 3.96875 15.042969 3.59375 14.917969 C 3.300781 14.820312 3.054688 14.644531 2.871094 14.417969 C 2.691406 14.195312 2.574219 13.921875 2.539062 13.617188 C 2.488281 13.148438 2.628906 12.621094 3.035156 12.121094 C 3.054688 12.097656 3.078125 12.074219 3.105469 12.054688 L 14.84375 3.015625 C 14.996094 2.875 15.230469 2.863281 15.398438 2.992188 L 27.167969 12.015625 C 27.1875 12.027344 27.203125 12.042969 27.21875 12.0625 C 27.765625 12.640625 27.902344 13.28125 27.769531 13.824219 C 27.703125 14.089844 27.574219 14.332031 27.394531 14.53125 C 27.214844 14.726562 26.988281 14.882812 26.730469 14.972656 C 26.316406 15.121094 25.828125 15.117188 25.332031 14.882812 L 25.332031 24.796875 Z M 3.675781 12.691406 C 3.445312 12.984375 3.367188 13.277344 3.394531 13.527344 C 3.410156 13.667969 3.460938 13.792969 3.542969 13.894531 C 3.625 13.996094 3.734375 14.070312 3.863281 14.117188 C 4.089844 14.191406 4.378906 14.171875 4.710938 14.015625 L 14.957031 6.328125 C 15.113281 6.210938 15.332031 6.214844 15.480469 6.332031 L 25.433594 13.960938 C 25.4375 13.964844 25.441406 13.96875 25.449219 13.972656 C 25.8125 14.230469 26.164062 14.273438 26.433594 14.175781 C 26.558594 14.132812 26.667969 14.058594 26.753906 13.964844 C 26.839844 13.867188 26.902344 13.753906 26.933594 13.625 C 27 13.347656 26.917969 13 26.613281 12.664062 L 15.136719 3.863281 Z M 8.621094 18.222656 L 14.113281 18.222656 C 14.328125 18.222656 14.503906 18.390625 14.503906 18.597656 L 14.503906 22.835938 C 14.503906 23.042969 14.328125 23.210938 14.113281 23.210938 L 8.621094 23.210938 C 8.40625 23.210938 8.230469 23.042969 8.230469 22.835938 L 8.230469 18.597656 C 8.234375 18.390625 8.40625 18.222656 8.621094 18.222656 Z M 16.464844 17.847656 L 21.625 17.847656 C 21.855469 17.847656 22.042969 18.039062 22.042969 18.277344 L 22.042969 25.28125 L 24.46875 25.28125 L 24.46875 14.382812 C 24.46875 14.355469 24.46875 14.328125 24.476562 14.300781 L 15.214844 7.203125 L 5.746094 14.304688 C 5.753906 14.339844 5.757812 14.378906 5.757812 14.414062 L 5.757812 25.277344 L 16.046875 25.277344 L 16.046875 18.273438 C 16.046875 18.039062 16.234375 17.847656 16.464844 17.847656 Z M 21.207031 18.699219 L 16.886719 18.699219 L 16.886719 25.269531 L 21.207031 25.269531 Z M 13.726562 21.09375 L 11.6875 21.09375 L 11.6875 22.460938 L 13.726562 22.460938 Z M 10.925781 21.09375 L 9.007812 21.09375 L 9.007812 22.460938 L 10.925781 22.460938 Z M 9.007812 20.339844 L 10.925781 20.339844 L 10.925781 18.972656 L 9.007812 18.972656 Z M 11.6875 20.339844 L 13.726562 20.339844 L 13.726562 18.972656 L 11.6875 18.972656 Z M 15.058594 10.277344 C 15.789062 10.277344 16.378906 10.859375 16.378906 11.582031 C 16.378906 12.300781 15.789062 12.886719 15.058594 12.886719 C 14.324219 12.886719 13.734375 12.300781 13.734375 11.582031 C 13.734375 10.859375 14.324219 10.277344 15.058594 10.277344 Z M 15.058594 10.277344 " fill-opacity="1" fill-rule="evenodd"/></g></svg>