<svg xmlns="http://www.w3.org/2000/svg" xmlns:xlink="http://www.w3.org/1999/xlink" width="40" zoomAndPan="magnify" viewBox="0 0 30 30.000001" height="40" preserveAspectRatio="xMidYMid meet" version="1.0"><defs><clipPath id="283fe58863"><path d="M 1.699219 3.488281 L 28.554688 3.488281 L 28.554688 25.261719 L 1.699219 25.261719 Z M 1.699219 3.488281 " clip-rule="nonzero"/></clipPath></defs><g clip-path="url(#283fe58863)"><path fill="#000000" d="M 6.445312 21.933594 C 6.65625 22.171875 6.625 22.535156 6.382812 22.738281 C 6.136719 22.945312 5.765625 22.917969 5.554688 22.675781 C 3.011719 19.773438 1.707031 16.492188 1.738281 13.164062 C 1.765625 9.921875 3.0625 6.65625 5.71875 3.683594 C 5.933594 3.445312 6.304688 3.421875 6.546875 3.628906 C 6.789062 3.835938 6.8125 4.199219 6.601562 4.4375 C 4.136719 7.195312 2.933594 10.203125 2.90625 13.175781 C 2.878906 16.21875 4.089844 19.242188 6.445312 21.933594 Z M 9.511719 19.140625 C 9.726562 19.375 9.703125 19.738281 9.460938 19.949219 C 9.21875 20.15625 8.851562 20.136719 8.636719 19.898438 C 6.683594 17.738281 5.683594 15.449219 5.722656 13.128906 C 5.761719 10.871094 6.785156 8.613281 8.867188 6.453125 C 9.089844 6.222656 9.457031 6.210938 9.695312 6.425781 C 9.929688 6.644531 9.941406 7.007812 9.71875 7.238281 C 7.84375 9.183594 6.925781 11.179688 6.890625 13.148438 C 6.855469 15.171875 7.753906 17.199219 9.511719 19.140625 Z M 12.230469 16.484375 C 12.433594 16.726562 12.394531 17.089844 12.144531 17.289062 C 11.894531 17.488281 11.527344 17.449219 11.320312 17.203125 C 10.269531 15.9375 9.71875 14.5625 9.714844 13.167969 C 9.710938 11.804688 10.226562 10.441406 11.300781 9.15625 C 11.503906 8.914062 11.871094 8.875 12.121094 9.074219 C 12.375 9.273438 12.410156 9.632812 12.207031 9.878906 C 11.3125 10.953125 10.882812 12.066406 10.886719 13.167969 C 10.890625 14.292969 11.347656 15.421875 12.230469 16.484375 Z M 24.699219 22.675781 C 24.488281 22.917969 24.121094 22.945312 23.875 22.738281 C 23.628906 22.535156 23.597656 22.171875 23.808594 21.933594 C 26.164062 19.242188 27.375 16.21875 27.347656 13.175781 C 27.324219 10.203125 26.117188 7.195312 23.652344 4.4375 C 23.441406 4.199219 23.464844 3.835938 23.707031 3.628906 C 23.953125 3.421875 24.320312 3.445312 24.535156 3.683594 C 27.191406 6.65625 28.488281 9.921875 28.519531 13.164062 C 28.546875 16.492188 27.242188 19.773438 24.699219 22.675781 Z M 21.617188 19.898438 C 21.402344 20.136719 21.035156 20.15625 20.792969 19.949219 C 20.550781 19.738281 20.527344 19.375 20.742188 19.140625 C 22.5 17.199219 23.398438 15.171875 23.363281 13.148438 C 23.328125 11.179688 22.410156 9.179688 20.535156 7.234375 C 20.3125 7.007812 20.324219 6.644531 20.5625 6.425781 C 20.796875 6.210938 21.167969 6.222656 21.390625 6.453125 C 23.472656 8.613281 24.492188 10.871094 24.53125 13.128906 C 24.570312 15.449219 23.574219 17.738281 21.617188 19.898438 Z M 18.933594 17.203125 C 18.730469 17.449219 18.359375 17.488281 18.109375 17.289062 C 17.859375 17.089844 17.820312 16.726562 18.023438 16.484375 C 18.90625 15.421875 19.367188 14.292969 19.371094 13.167969 C 19.371094 12.070312 18.941406 10.953125 18.046875 9.878906 C 17.84375 9.636719 17.882812 9.273438 18.132812 9.074219 C 18.382812 8.875 18.75 8.914062 18.957031 9.15625 C 20.027344 10.441406 20.542969 11.804688 20.539062 13.167969 C 20.535156 14.5625 19.984375 15.9375 18.933594 17.203125 Z M 15.714844 15.257812 L 15.714844 24.6875 C 15.714844 25.003906 15.453125 25.261719 15.128906 25.261719 C 14.804688 25.261719 14.539062 25.003906 14.539062 24.6875 L 14.539062 15.257812 C 14.167969 15.160156 13.835938 14.964844 13.570312 14.707031 C 13.171875 14.316406 12.925781 13.777344 12.925781 13.183594 C 12.925781 12.585938 13.171875 12.046875 13.570312 11.660156 C 13.96875 11.269531 14.519531 11.027344 15.128906 11.027344 C 15.738281 11.027344 16.289062 11.269531 16.6875 11.660156 C 17.085938 12.046875 17.332031 12.585938 17.332031 13.183594 C 17.332031 13.777344 17.085938 14.316406 16.6875 14.707031 C 16.421875 14.964844 16.085938 15.160156 15.714844 15.257812 Z M 15.714844 15.257812 " fill-opacity="1" fill-rule="nonzero"/></g></svg>