<svg xmlns="http://www.w3.org/2000/svg" xmlns:xlink="http://www.w3.org/1999/xlink" width="40" zoomAndPan="magnify" viewBox="0 0 30 30.000001" height="40" preserveAspectRatio="xMidYMid meet" version="1.0"><defs><clipPath id="405a3bbea8"><path d="M 1.679688 3.578125 L 28.535156 3.578125 L 28.535156 25.351562 L 1.679688 25.351562 Z M 1.679688 3.578125 " clip-rule="nonzero"/></clipPath></defs><g clip-path="url(#405a3bbea8)"><path fill="#000000" d="M 9.417969 7.128906 L 25.273438 7.128906 L 25.273438 13.742188 L 9.417969 13.742188 Z M 6.820312 23.316406 C 6.675781 23.796875 6.464844 24.1875 6.210938 24.492188 L 25.5 24.492188 C 26.195312 24.453125 26.714844 24.269531 27.058594 23.945312 C 27.398438 23.625 27.589844 23.148438 27.628906 22.519531 L 27.628906 4.433594 L 7.027344 4.433594 L 7.027344 21.664062 C 7.027344 22.398438 7.035156 22.609375 6.820312 23.316406 Z M 4.582031 25.347656 C 4.484375 25.351562 4.386719 25.351562 4.289062 25.347656 C 3.890625 25.324219 3.5 25.203125 3.148438 25 C 2.375 24.550781 1.777344 23.6875 1.722656 22.5625 C 1.71875 22.546875 1.71875 22.527344 1.71875 22.507812 L 1.71875 7.355469 C 1.71875 7.117188 1.910156 6.929688 2.148438 6.929688 L 6.160156 6.929688 L 6.160156 4.003906 C 6.160156 3.765625 6.355469 3.578125 6.59375 3.578125 L 28.0625 3.578125 C 28.300781 3.578125 28.492188 3.769531 28.492188 4.003906 L 28.492188 22.53125 C 28.492188 22.554688 28.492188 22.574219 28.488281 22.597656 C 28.429688 23.4375 28.152344 24.09375 27.652344 24.5625 C 27.15625 25.03125 26.453125 25.289062 25.546875 25.339844 C 25.527344 25.34375 25.507812 25.347656 25.488281 25.347656 Z M 4.34375 24.496094 C 4.367188 24.492188 4.390625 24.492188 4.414062 24.492188 L 4.570312 24.492188 C 4.742188 24.472656 4.910156 24.425781 5.066406 24.34375 C 6.027344 23.847656 6.160156 22.632812 6.160156 21.671875 L 6.160156 7.78125 L 2.582031 7.78125 L 2.582031 22.507812 C 2.582031 22.511719 2.582031 22.515625 2.582031 22.523438 C 2.625 23.332031 3.046875 23.945312 3.585938 24.261719 C 3.824219 24.402344 4.082031 24.480469 4.335938 24.496094 Z M 10.625 8.777344 L 11.472656 8.777344 L 12.578125 10.609375 L 12.578125 8.777344 L 13.4375 8.777344 L 13.4375 12.09375 L 12.578125 12.09375 L 11.480469 10.273438 L 11.480469 12.09375 L 10.625 12.09375 Z M 14.183594 8.777344 L 16.621094 8.777344 L 16.621094 9.488281 L 15.097656 9.488281 L 15.097656 10.015625 L 16.507812 10.015625 L 16.507812 10.691406 L 15.097656 10.691406 L 15.097656 11.347656 L 16.664062 11.347656 L 16.664062 12.097656 L 14.183594 12.097656 Z M 17 8.777344 L 17.863281 8.777344 L 18.171875 10.628906 L 18.625 8.777344 L 19.484375 8.777344 L 19.941406 10.632812 L 20.25 8.777344 L 21.113281 8.777344 L 20.464844 12.09375 L 19.570312 12.09375 L 19.054688 10.003906 L 18.542969 12.09375 L 17.648438 12.09375 Z M 21.398438 11 L 22.261719 10.941406 C 22.277344 11.097656 22.316406 11.21875 22.375 11.300781 C 22.46875 11.433594 22.601562 11.5 22.777344 11.5 C 22.902344 11.5 23.003906 11.464844 23.074219 11.394531 C 23.144531 11.328125 23.179688 11.246094 23.179688 11.15625 C 23.179688 11.070312 23.144531 10.992188 23.078125 10.925781 C 23.011719 10.859375 22.855469 10.796875 22.613281 10.734375 C 22.214844 10.632812 21.933594 10.5 21.761719 10.332031 C 21.589844 10.164062 21.503906 9.953125 21.503906 9.691406 C 21.503906 9.523438 21.546875 9.363281 21.636719 9.210938 C 21.722656 9.058594 21.855469 8.941406 22.03125 8.855469 C 22.207031 8.769531 22.449219 8.726562 22.753906 8.726562 C 23.128906 8.726562 23.417969 8.804688 23.613281 8.960938 C 23.8125 9.117188 23.929688 9.371094 23.96875 9.714844 L 23.113281 9.773438 C 23.089844 9.621094 23.042969 9.511719 22.96875 9.445312 C 22.894531 9.375 22.796875 9.339844 22.667969 9.339844 C 22.5625 9.339844 22.480469 9.367188 22.425781 9.414062 C 22.371094 9.464844 22.347656 9.527344 22.347656 9.601562 C 22.347656 9.652344 22.367188 9.699219 22.410156 9.742188 C 22.453125 9.785156 22.554688 9.828125 22.714844 9.867188 C 23.109375 9.960938 23.394531 10.058594 23.566406 10.15625 C 23.738281 10.257812 23.863281 10.378906 23.941406 10.527344 C 24.019531 10.671875 24.058594 10.835938 24.058594 11.015625 C 24.058594 11.230469 24.007812 11.425781 23.902344 11.605469 C 23.796875 11.785156 23.652344 11.921875 23.464844 12.015625 C 23.277344 12.109375 23.042969 12.15625 22.753906 12.15625 C 22.253906 12.15625 21.90625 12.046875 21.714844 11.828125 C 21.535156 11.609375 21.425781 11.332031 21.398438 11 Z M 9.519531 16.675781 C 9.28125 16.675781 9.089844 16.484375 9.089844 16.25 C 9.089844 16.015625 9.28125 15.824219 9.519531 15.824219 L 16.113281 15.824219 C 16.347656 15.824219 16.542969 16.015625 16.542969 16.25 C 16.542969 16.484375 16.347656 16.675781 16.113281 16.675781 Z M 18.003906 16.675781 C 17.761719 16.675781 17.570312 16.484375 17.570312 16.246094 C 17.570312 16.011719 17.761719 15.820312 18.003906 15.820312 L 25.113281 15.820312 C 25.351562 15.820312 25.546875 16.011719 25.546875 16.246094 C 25.546875 16.484375 25.351562 16.675781 25.113281 16.675781 Z M 18.003906 19.152344 C 17.761719 19.152344 17.570312 18.960938 17.570312 18.726562 C 17.570312 18.488281 17.761719 18.296875 18.003906 18.296875 L 25.113281 18.296875 C 25.351562 18.296875 25.546875 18.488281 25.546875 18.726562 C 25.546875 18.960938 25.351562 19.152344 25.113281 19.152344 Z M 18.003906 21.628906 C 17.761719 21.628906 17.570312 21.4375 17.570312 21.203125 C 17.570312 20.964844 17.761719 20.773438 18.003906 20.773438 L 25.113281 20.773438 C 25.351562 20.773438 25.546875 20.964844 25.546875 21.203125 C 25.546875 21.4375 25.351562 21.628906 25.113281 21.628906 Z M 9.519531 21.628906 C 9.28125 21.628906 9.089844 21.4375 9.089844 21.203125 C 9.089844 20.96875 9.28125 20.777344 9.519531 20.777344 L 16.113281 20.777344 C 16.347656 20.777344 16.542969 20.96875 16.542969 21.203125 C 16.542969 21.4375 16.347656 21.628906 16.113281 21.628906 Z M 9.730469 19.152344 C 9.488281 19.152344 9.296875 18.960938 9.296875 18.726562 C 9.296875 18.492188 9.492188 18.300781 9.730469 18.300781 L 16.320312 18.300781 C 16.558594 18.300781 16.753906 18.492188 16.753906 18.726562 C 16.753906 18.960938 16.558594 19.152344 16.320312 19.152344 Z M 9.730469 19.152344 " fill-opacity="1" fill-rule="evenodd"/></g></svg>