<svg xmlns="http://www.w3.org/2000/svg" xmlns:xlink="http://www.w3.org/1999/xlink" width="40" zoomAndPan="magnify" viewBox="0 0 30 30.000001" height="40" preserveAspectRatio="xMidYMid meet" version="1.0"><defs><clipPath id="7f89e53dc1"><path d="M 2 1.820312 L 28.839844 1.820312 L 28.839844 27.949219 L 2 27.949219 Z M 2 1.820312 " clip-rule="nonzero"/></clipPath></defs><g clip-path="url(#7f89e53dc1)"><path fill="#000000" d="M 15.742188 7.875 C 16.257812 6.714844 16.828125 5.617188 17.507812 4.6875 C 18.890625 2.792969 22.265625 0.519531 24.332031 2.722656 C 26.179688 4.695312 24.613281 6.847656 22.410156 7.875 L 27.390625 7.875 C 27.777344 7.875 28.140625 8.035156 28.386719 8.292969 C 28.644531 8.550781 28.804688 8.902344 28.804688 9.285156 L 28.804688 11.960938 C 28.804688 12.347656 28.644531 12.707031 28.386719 12.957031 C 28.15625 13.1875 27.847656 13.339844 27.503906 13.363281 L 27.503906 26.425781 C 27.503906 26.84375 27.335938 27.226562 27.054688 27.5 C 26.785156 27.769531 26.398438 27.949219 25.980469 27.949219 L 4.878906 27.949219 C 4.460938 27.949219 4.074219 27.78125 3.800781 27.5 C 3.527344 27.226562 3.351562 26.84375 3.351562 26.425781 L 3.351562 13.375 C 3 13.347656 2.675781 13.195312 2.4375 12.964844 C 2.179688 12.707031 2.019531 12.355469 2.019531 11.972656 L 2.019531 9.292969 C 2.019531 8.910156 2.179688 8.550781 2.4375 8.300781 C 2.695312 8.042969 3.046875 7.882812 3.433594 7.882812 L 8.503906 7.882812 C 6.3125 6.859375 4.742188 4.703125 6.582031 2.730469 C 8.648438 0.519531 12.023438 2.804688 13.40625 4.695312 C 14.085938 5.632812 14.65625 6.730469 15.171875 7.882812 L 15.726562 7.882812 Z M 20.25 7.875 C 25.289062 5.648438 23.617188 1.898438 20.425781 3.710938 C 19.679688 4.132812 19.054688 4.925781 18.492188 5.722656 C 17.960938 6.464844 17.484375 7.25 17.132812 7.875 Z M 10.671875 7.875 C 5.632812 5.648438 7.304688 1.898438 10.492188 3.710938 C 11.242188 4.132812 11.867188 4.925781 12.429688 5.722656 C 12.960938 6.464844 13.433594 7.25 13.789062 7.875 Z M 26.332031 21.617188 L 17.390625 21.617188 L 17.390625 26.769531 L 25.988281 26.769531 C 26.082031 26.769531 26.171875 26.730469 26.234375 26.664062 C 26.300781 26.597656 26.339844 26.511719 26.339844 26.417969 L 26.339844 21.617188 Z M 13.597656 21.617188 L 4.523438 21.617188 L 4.523438 26.417969 C 4.523438 26.511719 4.5625 26.601562 4.628906 26.664062 C 4.695312 26.730469 4.78125 26.769531 4.878906 26.769531 L 13.597656 26.769531 Z M 4.523438 18.484375 L 13.597656 18.484375 L 13.597656 12.8125 L 4.523438 12.8125 Z M 17.382812 18.484375 L 26.324219 18.484375 L 26.324219 12.8125 L 17.382812 12.8125 Z M 17.382812 18.484375 " fill-opacity="1" fill-rule="evenodd"/></g></svg>