<svg xmlns="http://www.w3.org/2000/svg" xmlns:xlink="http://www.w3.org/1999/xlink" width="40" zoomAndPan="magnify" viewBox="0 0 30 30.000001" height="40" preserveAspectRatio="xMidYMid meet" version="1.0"><defs><clipPath id="11511e478d"><path d="M 1.332031 3.941406 L 28.1875 3.941406 L 28.1875 24.992188 L 1.332031 24.992188 Z M 1.332031 3.941406 " clip-rule="nonzero"/></clipPath></defs><g clip-path="url(#11511e478d)"><path fill="#000000" d="M 3.984375 3.953125 L 25.535156 3.953125 C 26.265625 3.953125 26.929688 4.253906 27.410156 4.734375 C 27.890625 5.21875 28.1875 5.882812 28.1875 6.617188 L 28.1875 22.304688 C 28.1875 23.039062 27.886719 23.707031 27.410156 24.1875 C 26.929688 24.671875 26.265625 24.972656 25.535156 24.972656 L 21.335938 24.972656 C 21.304688 24.976562 21.265625 24.980469 21.226562 24.980469 C 21.1875 24.980469 21.152344 24.976562 21.113281 24.972656 L 15.042969 24.972656 C 15.007812 24.976562 14.972656 24.980469 14.933594 24.980469 C 14.894531 24.980469 14.859375 24.976562 14.820312 24.972656 L 8.613281 24.972656 C 8.578125 24.976562 8.539062 24.980469 8.5 24.980469 C 8.464844 24.980469 8.425781 24.976562 8.390625 24.972656 L 3.984375 24.972656 C 3.253906 24.972656 2.589844 24.671875 2.109375 24.1875 C 1.628906 23.707031 1.332031 23.039062 1.332031 22.304688 L 1.332031 6.617188 C 1.332031 5.882812 1.632812 5.21875 2.109375 4.734375 C 2.589844 4.253906 3.253906 3.953125 3.984375 3.953125 Z M 13.394531 10.808594 L 17.878906 13.953125 C 17.949219 13.996094 18.015625 14.058594 18.0625 14.132812 C 18.265625 14.421875 18.191406 14.820312 17.902344 15.023438 L 13.433594 18.125 C 13.324219 18.214844 13.183594 18.269531 13.027344 18.269531 C 12.675781 18.269531 12.386719 17.984375 12.386719 17.628906 L 12.386719 11.335938 L 12.390625 11.335938 C 12.390625 11.207031 12.425781 11.078125 12.503906 10.96875 C 12.707031 10.679688 13.105469 10.609375 13.394531 10.808594 Z M 21.863281 21.394531 L 21.863281 23.6875 L 25.53125 23.6875 C 25.910156 23.6875 26.253906 23.53125 26.503906 23.28125 C 26.75 23.03125 26.90625 22.6875 26.90625 22.304688 L 26.90625 21.394531 Z M 20.585938 23.6875 L 20.585938 21.394531 L 15.574219 21.394531 L 15.574219 23.6875 Z M 14.292969 23.6875 L 14.292969 21.394531 L 9.140625 21.394531 L 9.140625 23.6875 Z M 7.859375 23.6875 L 7.859375 21.394531 L 2.609375 21.394531 L 2.609375 22.304688 C 2.609375 22.6875 2.765625 23.03125 3.015625 23.28125 C 3.265625 23.53125 3.605469 23.6875 3.984375 23.6875 Z M 2.609375 20.109375 L 26.910156 20.109375 L 26.910156 8.824219 L 2.609375 8.824219 Z M 20.585938 7.542969 L 20.585938 5.238281 L 15.574219 5.238281 L 15.574219 7.539062 L 20.585938 7.539062 Z M 21.863281 5.238281 L 21.863281 7.539062 L 26.90625 7.539062 L 26.90625 6.617188 C 26.90625 6.238281 26.75 5.894531 26.503906 5.644531 C 26.253906 5.390625 25.910156 5.238281 25.53125 5.238281 Z M 14.292969 7.542969 L 14.292969 5.238281 L 9.140625 5.238281 L 9.140625 7.539062 L 14.292969 7.539062 Z M 7.859375 7.542969 L 7.859375 5.238281 L 3.984375 5.238281 C 3.605469 5.238281 3.265625 5.390625 3.015625 5.644531 C 2.765625 5.894531 2.609375 6.238281 2.609375 6.617188 L 2.609375 7.539062 L 7.859375 7.539062 Z M 7.859375 7.542969 " fill-opacity="1" fill-rule="nonzero"/></g></svg>